# Low-poly football player prototype.
# Authored for the portfolio training mode as a lightweight OBJ base mesh.
o boot_left
v -0.31 0.00 0.18
v -0.05 0.00 0.18
v -0.05 0.00 -0.22
v -0.31 0.00 -0.22
v -0.31 0.12 0.18
v -0.05 0.12 0.18
v -0.05 0.12 -0.22
v -0.31 0.12 -0.22
f 1 2 3 4
f 5 8 7 6
f 1 5 6 2
f 2 6 7 3
f 3 7 8 4
f 4 8 5 1
o boot_right
v 0.05 0.00 0.18
v 0.31 0.00 0.18
v 0.31 0.00 -0.22
v 0.05 0.00 -0.22
v 0.05 0.12 0.18
v 0.31 0.12 0.18
v 0.31 0.12 -0.22
v 0.05 0.12 -0.22
f 9 10 11 12
f 13 16 15 14
f 9 13 14 10
f 10 14 15 11
f 11 15 16 12
f 12 16 13 9
o calf_left
v -0.28 0.10 0.10
v -0.08 0.10 0.10
v -0.08 0.10 -0.10
v -0.28 0.10 -0.10
v -0.25 0.72 0.09
v -0.10 0.72 0.09
v -0.10 0.72 -0.09
v -0.25 0.72 -0.09
f 17 18 19 20
f 21 24 23 22
f 17 21 22 18
f 18 22 23 19
f 19 23 24 20
f 20 24 21 17
o calf_right
v 0.08 0.10 0.10
v 0.28 0.10 0.10
v 0.28 0.10 -0.10
v 0.08 0.10 -0.10
v 0.10 0.72 0.09
v 0.25 0.72 0.09
v 0.25 0.72 -0.09
v 0.10 0.72 -0.09
f 25 26 27 28
f 29 32 31 30
f 25 29 30 26
f 26 30 31 27
f 27 31 32 28
f 28 32 29 25
o shorts
v -0.42 0.72 0.18
v 0.42 0.72 0.18
v 0.42 0.72 -0.18
v -0.42 0.72 -0.18
v -0.34 1.05 0.16
v 0.34 1.05 0.16
v 0.34 1.05 -0.16
v -0.34 1.05 -0.16
f 33 34 35 36
f 37 40 39 38
f 33 37 38 34
f 34 38 39 35
f 35 39 40 36
f 36 40 37 33
o torso
v -0.48 1.00 0.20
v 0.48 1.00 0.20
v 0.48 1.00 -0.20
v -0.48 1.00 -0.20
v -0.34 1.85 0.18
v 0.34 1.85 0.18
v 0.34 1.85 -0.18
v -0.34 1.85 -0.18
f 41 42 43 44
f 45 48 47 46
f 41 45 46 42
f 42 46 47 43
f 43 47 48 44
f 44 48 45 41
o head
v -0.24 1.88 0.20
v 0.24 1.88 0.20
v 0.24 1.88 -0.20
v -0.24 1.88 -0.20
v -0.24 2.36 0.20
v 0.24 2.36 0.20
v 0.24 2.36 -0.20
v -0.24 2.36 -0.20
f 49 50 51 52
f 53 56 55 54
f 49 53 54 50
f 50 54 55 51
f 51 55 56 52
f 52 56 53 49
o arm_left
v -0.66 1.08 0.09
v -0.46 1.08 0.09
v -0.46 1.08 -0.09
v -0.66 1.08 -0.09
v -0.55 1.78 0.08
v -0.38 1.78 0.08
v -0.38 1.78 -0.08
v -0.55 1.78 -0.08
f 57 58 59 60
f 61 64 63 62
f 57 61 62 58
f 58 62 63 59
f 59 63 64 60
f 60 64 61 57
o arm_right
v 0.46 1.08 0.09
v 0.66 1.08 0.09
v 0.66 1.08 -0.09
v 0.46 1.08 -0.09
v 0.38 1.78 0.08
v 0.55 1.78 0.08
v 0.55 1.78 -0.08
v 0.38 1.78 -0.08
f 65 66 67 68
f 69 72 71 70
f 65 69 70 66
f 66 70 71 67
f 67 71 72 68
f 68 72 69 65
