# Hydra Racer low-poly OBJ
o HydraRacer
g body
v 0.000 0.920 -4.100
v -1.020 0.720 -3.780
v 1.020 0.720 -3.780
v -1.520 0.520 -2.800
v 1.520 0.520 -2.800
v -1.760 0.430 -1.180
v 1.760 0.430 -1.180
v -1.560 0.430 2.350
v 1.560 0.430 2.350
v -1.080 0.660 3.350
v 1.080 0.660 3.350
v 0.000 0.820 3.620
v 0.000 1.250 -2.520
v -0.900 1.030 -2.150
v 0.900 1.030 -2.150
v -1.180 0.900 -0.300
v 1.180 0.900 -0.300
v -0.820 0.980 1.540
v 0.820 0.980 1.540
v 0.000 1.120 1.920
v -1.520 0.120 -2.780
v 1.520 0.120 -2.780
v -1.880 0.110 -1.100
v 1.880 0.110 -1.100
v -1.680 0.110 2.280
v 1.680 0.110 2.280
v -1.080 0.180 3.320
v 1.080 0.180 3.320
v 0.000 0.190 3.620
v -1.260 0.560 -3.660
v 1.260 0.560 -3.660
v -1.720 0.430 -2.240
v 1.720 0.430 -2.240
v -1.960 0.330 2.020
v 1.960 0.330 2.020
v -1.460 0.420 3.000
v 1.460 0.420 3.000
f 1 2 4 3
f 3 4 6 5
f 5 6 8 7
f 7 8 10 9
f 9 10 12 11
f 2 21 23 4
f 4 23 25 6
f 6 25 27 8
f 8 27 29 10
f 3 5 24 22
f 5 7 26 24
f 7 9 28 26
f 9 11 29 28
f 21 22 24 23
f 23 24 26 25
f 25 26 28 27
f 27 28 29
f 1 13 14 2
f 1 3 15 13
f 13 15 17 16 14
f 14 16 18
f 15 19 17
f 16 17 19 20 18
f 18 20 12 10
f 19 11 12 20
f 30 31 33 32
f 32 33 35 34
f 34 35 37 36
g glass
v -0.760 1.060 -2.020
v 0.760 1.060 -2.020
v -1.020 0.910 -0.380
v 1.020 0.910 -0.380
v -0.720 0.980 1.260
v 0.720 0.980 1.260
f 38 39 41 40
f 40 41 43 42
g wing
v -1.950 1.090 2.980
v 1.950 1.090 2.980
v -1.950 1.230 3.380
v 1.950 1.230 3.380
v -1.620 0.530 2.830
v -1.420 1.100 3.050
v 1.620 0.530 2.830
v 1.420 1.100 3.050
f 44 45 47 46
f 48 49 46 44
f 50 45 47 51
g wheels
v -1.840 0.150 -2.150
v -1.840 0.150 -1.250
v -1.840 0.800 -1.250
v -1.840 0.800 -2.150
v 1.840 0.150 -2.150
v 1.840 0.150 -1.250
v 1.840 0.800 -1.250
v 1.840 0.800 -2.150
v -1.760 0.150 1.420
v -1.760 0.150 2.320
v -1.760 0.800 2.320
v -1.760 0.800 1.420
v 1.760 0.150 1.420
v 1.760 0.150 2.320
v 1.760 0.800 2.320
v 1.760 0.800 1.420
f 52 53 54 55
f 56 59 58 57
f 60 61 62 63
f 64 67 66 65
